<svg height="496pt" viewBox="0 0 496 496" width="496pt" xmlns="http://www.w3.org/2000/svg"><path d="m296 360h-32c-8.839844 0-16-7.160156-16-16s7.160156-16 16-16h32c8.839844 0 16 7.160156 16 16s-7.160156 16-16 16zm0 0" fill="#f0d0b4"/><path d="m296 328h-32c-8.839844 0-16-7.160156-16-16s7.160156-16 16-16h32c8.839844 0 16 7.160156 16 16s-7.160156 16-16 16zm0 0" fill="#f0d0b4"/><path d="m216 272v56l7.617188 152.398438c.214843 4.257812 3.726562 7.601562 7.992187 7.601562h32.78125c4.265625 0 7.777344-3.34375 7.992187-7.601562l2.816407-56.398438.800781-152zm0 0" fill="#838f9b"/><path d="m291.550781 296h-27.550781c-8.839844 0-16 7.160156-16 16s7.160156 16 16 16h32v-16c0-5.855469-1.695312-11.273438-4.449219-16zm0 0" fill="#ecc19c"/><path d="m248 344c0 8.839844 7.160156 16 16 16h27.550781c2.753907-4.726562 4.449219-10.144531 4.449219-16v-16h-32c-8.839844 0-16 7.160156-16 16zm0 0" fill="#ecc19c"/><path d="m216 328h32v16c0 8.839844 7.160156 16 16 16s16-7.160156 16-16v-32c0-8.839844-7.160156-16-16-16h-74.742188c-8.488281 0-16.625 3.367188-22.625 9.375l-6.632812 6.625h-24v96h24l6.625 6.625c6 6 14.144531 9.375 22.621094 9.375h31.554687zm0 0" fill="#f0d0b4"/><path d="m200.023438 328.800781 4.761718 95.199219h16.015625l-4.800781-96zm0 0" fill="#ecc19c"/><path d="m296 392h-32c-8.839844 0-16-7.160156-16-16s7.160156-16 16-16h32c8.839844 0 16 7.160156 16 16s-7.160156 16-16 16zm0 0" fill="#f0d0b4"/><path d="m296 424h-32c-8.839844 0-16-7.160156-16-16s7.160156-16 16-16h32c8.839844 0 16 7.160156 16 16s-7.160156 16-16 16zm0 0" fill="#f0d0b4"/><path d="m112 424h16c4.414062 0 8-3.585938 8-8v-112c0-4.414062-3.585938-8-8-8h-16c-4.414062 0-8 3.585938-8 8v112c0 4.414062 3.585938 8 8 8zm0 0" fill="#b4dd7f"/><path d="m232 138.097656v-98.097656c0-17.671875-14.328125-32-32-32h-160c-17.671875 0-32 14.328125-32 32v96c0 17.671875 14.328125 32 32 32h16v40l80-40h96zm0 0" fill="#e6e9ed"/><path d="m8 312h96v96h-96zm0 0" fill="#e6e9ed"/><path d="m264 168h96l80 40v-40h16c17.671875 0 32-14.328125 32-32v-96c0-17.671875-14.328125-32-32-32h-160c-17.671875 0-32 14.328125-32 32zm0 0" fill="#e6e9ed"/><path d="m264 121.617188v46.382812h57.273438c-10.304688-23.496094-31.546876-41.144531-57.273438-46.382812zm0 0" fill="#ccd1d9"/><path d="m174.726562 168h57.273438v-46.390625c-25.726562 5.246094-46.96875 22.894531-57.273438 46.390625zm0 0" fill="#ccd1d9"/><path d="m248 296c-35.34375 0-64-28.65625-64-64v-32c0-35.34375 28.65625-64 64-64s64 28.65625 64 64v32c0 35.34375-28.65625 64-64 64zm0 0" fill="#fcd770"/><path d="m184 200h128v32h-128zm0 0" fill="#ccd1d9"/><g fill="#ff826e"><path d="m392 88c0 8.835938-7.164062 16-16 16s-16-7.164062-16-16 7.164062-16 16-16 16 7.164062 16 16zm0 0"/><path d="m456 88c0 8.835938-7.164062 16-16 16s-16-7.164062-16-16 7.164062-16 16-16 16 7.164062 16 16zm0 0"/><path d="m328 88c0 8.835938-7.164062 16-16 16s-16-7.164062-16-16 7.164062-16 16-16 16 7.164062 16 16zm0 0"/><path d="m136 88c0 8.835938-7.164062 16-16 16s-16-7.164062-16-16 7.164062-16 16-16 16 7.164062 16 16zm0 0"/><path d="m200 88c0 8.835938-7.164062 16-16 16s-16-7.164062-16-16 7.164062-16 16-16 16 7.164062 16 16zm0 0"/><path d="m72 88c0 8.835938-7.164062 16-16 16s-16-7.164062-16-16 7.164062-16 16-16 16 7.164062 16 16zm0 0"/></g><path d="m264 360c-7.449219 0-13.648438 5.105469-15.433594 11.992188 4.585938 2.535156 9.832032 4.007812 15.433594 4.007812 11.792969 0 22-6.480469 27.550781-16zm0 0" fill="#ecc19c"/><path d="m88 312h16v96h-16zm0 0" fill="#ccd1d9"/><path d="m136 312h16v96h-16zm0 0" fill="#ecc19c"/><path d="m456 0h-160c-22.054688 0-40 17.945312-40 40v88.472656c-2.632812-.296875-5.296875-.472656-8-.472656s-5.367188.175781-8 .472656v-88.472656c0-22.054688-17.945312-40-40-40h-160c-22.054688 0-40 17.945312-40 40v96c0 22.054688 17.945312 40 40 40h8v44.945312l89.886719-44.945312h42.3125c-2.671875 7.519531-4.199219 15.574219-4.199219 24v32c0 22.609375 10.496094 42.792969 26.847656 56h-13.589844c-10.683593 0-20.730468 4.167969-28.28125 11.71875l-4.289062 4.28125h-12.6875c0-8.824219-7.175781-16-16-16h-16c-8.824219 0-16 7.175781-16 16h-96v112h96c0 8.824219 7.175781 16 16 16h16c8.824219 0 16-7.175781 16-16h12.6875l4.289062 4.28125c7.550782 7.550781 17.597657 11.71875 28.28125 11.71875h23.933594l2.441406 48.800781c.421876 8.519531 7.4375 15.199219 15.976563 15.199219h32.78125c8.539063 0 15.554687-6.679688 15.976563-15.199219l2.441406-48.800781h13.191406c13.230469 0 24-10.769531 24-24 0-6.167969-2.40625-11.742188-6.238281-16 3.839843-4.257812 6.238281-9.832031 6.238281-16s-2.40625-11.742188-6.238281-16c3.839843-4.257812 6.238281-9.832031 6.238281-16s-2.40625-11.742188-6.238281-16c3.839843-4.257812 6.238281-9.832031 6.238281-16 0-13.230469-10.769531-24-24-24h-2.847656c16.351562-13.207031 26.847656-33.390625 26.847656-56v-32c0-8.425781-1.527344-16.480469-4.199219-24h42.3125l89.886719 44.945312v-44.945312h8c22.054688 0 40-17.945312 40-40v-96c0-22.054688-17.945312-40-40-40zm-440 400v-80h80v80zm112 16h-16v-112h16zm175.359375-224h-15.359375v-16h-16v16h-48v-16h-16v16h-15.359375c3.902344-27.089844 27.207031-48 55.359375-48s51.457031 20.910156 55.359375 48zm-111.359375 32v-16h112v16zm-57.886719-64-70.113281 35.054688v-35.054688h-24c-13.230469 0-24-10.769531-24-24v-96c0-13.230469 10.769531-24 24-24h160c13.230469 0 24 10.769531 24 24v92.199219c-14.710938 5.226562-27.265625 15.039062-35.824219 27.800781zm55.144531 256c-6.320312 0-12.496093-2.558594-16.96875-7.03125l-8.976562-8.96875h-19.3125v-80h19.3125l8.976562-8.96875c4.464844-4.472656 10.648438-7.03125 16.96875-7.03125h74.742188c4.40625 0 8 3.585938 8 8v32c0 4.414062-3.59375 8-8 8s-8-3.585938-8-8v-24h-48.40625l4.796875 96zm114.742188-72c0 4.414062-3.59375 8-8 8h-9.472656c.898437-2.511719 1.472656-5.183594 1.472656-8v-8h8c4.40625 0 8 3.585938 8 8zm0 32c0 4.414062-3.59375 8-8 8h-32c-4.40625 0-8-3.585938-8-8s3.59375-8 8-8h32c4.40625 0 8 3.585938 8 8zm-39.609375 104h-32.78125l-7.203125-144h15.59375v8c0 6.167969 2.40625 11.742188 6.238281 16-3.839843 4.257812-6.238281 9.832031-6.238281 16s2.40625 11.742188 6.238281 16c-3.839843 4.257812-6.238281 9.832031-6.238281 16 0 13.230469 10.769531 24 24 24h2.792969zm31.609375-64h-32c-4.40625 0-8-3.585938-8-8s3.59375-8 8-8h32c4.40625 0 8 3.585938 8 8s-3.59375 8-8 8zm8-104c0 4.414062-3.59375 8-8 8h-8v-8c0-2.816406-.574219-5.488281-1.472656-8h9.472656c4.40625 0 8 3.585938 8 8zm-56-24c-28.152344 0-51.457031-20.910156-55.359375-48h15.359375v16h16v-16h48v16h16v-16h15.359375c-3.902344 27.089844-27.207031 48-55.359375 48zm232-152c0 13.230469-10.769531 24-24 24h-24v35.054688l-70.113281-35.054688h-54.0625c-8.558594-12.761719-21.113281-22.574219-35.824219-27.800781v-92.199219c0-13.230469 10.769531-24 24-24h160c13.230469 0 24 10.769531 24 24zm0 0"/><path d="m376 64c-13.230469 0-24 10.769531-24 24s10.769531 24 24 24 24-10.769531 24-24-10.769531-24-24-24zm0 32c-4.40625 0-8-3.585938-8-8s3.59375-8 8-8 8 3.585938 8 8-3.59375 8-8 8zm0 0"/><path d="m440 64c-13.230469 0-24 10.769531-24 24s10.769531 24 24 24 24-10.769531 24-24-10.769531-24-24-24zm0 32c-4.40625 0-8-3.585938-8-8s3.59375-8 8-8 8 3.585938 8 8-3.59375 8-8 8zm0 0"/><path d="m312 64c-13.230469 0-24 10.769531-24 24s10.769531 24 24 24 24-10.769531 24-24-10.769531-24-24-24zm0 32c-4.40625 0-8-3.585938-8-8s3.59375-8 8-8 8 3.585938 8 8-3.59375 8-8 8zm0 0"/><path d="m120 64c-13.230469 0-24 10.769531-24 24s10.769531 24 24 24 24-10.769531 24-24-10.769531-24-24-24zm0 32c-4.40625 0-8-3.585938-8-8s3.59375-8 8-8 8 3.585938 8 8-3.59375 8-8 8zm0 0"/><path d="m208 88c0-13.230469-10.769531-24-24-24s-24 10.769531-24 24 10.769531 24 24 24 24-10.769531 24-24zm-24 8c-4.40625 0-8-3.585938-8-8s3.59375-8 8-8 8 3.585938 8 8-3.59375 8-8 8zm0 0"/><path d="m56 64c-13.230469 0-24 10.769531-24 24s10.769531 24 24 24 24-10.769531 24-24-10.769531-24-24-24zm0 32c-4.40625 0-8-3.585938-8-8s3.59375-8 8-8 8 3.585938 8 8-3.59375 8-8 8zm0 0"/></svg>